<svg xmlns="http://www.w3.org/2000/svg" viewBox="0 0 1000 1000"><rect width="1000" height="1000" fill="rgb(250, 249, 247)"/><g transform="translate(127.70,784.09) scale(0.82826,-0.82826)"><path fill="rgb(33, 33, 33)" d="M39 0V47H64Q94 47 118 50Q139 52 143.0 55.5Q147 59 147 76V639H39V686H268Q283 686 288.0 684.0Q293 682 301 673L699 205V610Q699 627 695.0 630.5Q691 634 669 636Q642 639 616 639H591V686Q632 683 726 683Q822 683 860 686V639H835Q805 639 781 636Q760 634 756.0 630.5Q752 627 752 610V32Q752 12 748.0 6.0Q744 0 725 0Q713 0 709.5 2.0Q706 4 698 13L200 599V76Q200 59 204.0 55.5Q208 52 230 50Q257 47 283 47H308V0Q267 3 173 3Q77 3 39 0Z"/></g></svg>